<?xml version="1.0" encoding="UTF-8"?>
<svg xmlns="http://www.w3.org/2000/svg" xmlns:xlink="http://www.w3.org/1999/xlink" viewBox="0 0 32 32" width="32px" height="32px">
<g id="surface132989748">
<path style=" stroke:none;fill-rule:nonzero;fill:rgb(0%,0%,0%);fill-opacity:1;" d="M 4.976562 6.023438 C 3.328125 6.023438 1.976562 7.375 1.976562 9.023438 L 1.976562 23.023438 C 1.976562 24.671875 3.328125 26.023438 4.976562 26.023438 L 26.976562 26.023438 C 28.617188 26.023438 29.976562 24.671875 29.976562 23.023438 L 29.976562 9.023438 C 29.976562 7.375 28.625 6.023438 26.976562 6.023438 Z M 4.976562 8.023438 L 26.976562 8.023438 C 27.539062 8.023438 27.976562 8.460938 27.976562 9.023438 L 27.976562 23.023438 C 27.976562 23.585938 27.539062 24.023438 26.976562 24.023438 L 4.976562 24.023438 C 4.414062 24.023438 3.976562 23.585938 3.976562 23.023438 L 3.976562 9.023438 C 3.976562 8.460938 4.414062 8.023438 4.976562 8.023438 Z M 12 9.984375 L 12 22.023438 L 22 16 Z M 14 13.515625 L 18.125 16 L 14 18.484375 Z M 14 13.515625 "/>
</g>
</svg>
